<svg width="148" height="35" viewBox="0 0 148 35" fill="none" xmlns="http://www.w3.org/2000/svg">
<path d="M47.411 23V11.1H53.225C54.721 11.1 55.843 11.3833 56.591 11.95C57.3504 12.5167 57.73 13.2647 57.73 14.194C57.73 14.8173 57.577 15.3613 57.271 15.826C56.965 16.2793 56.5457 16.6307 56.013 16.88C55.4804 17.1293 54.8684 17.254 54.177 17.254L54.5 16.557C55.248 16.557 55.911 16.6817 56.489 16.931C57.067 17.169 57.5147 17.526 57.832 18.002C58.1607 18.478 58.325 19.0617 58.325 19.753C58.325 20.773 57.9227 21.572 57.118 22.15C56.3134 22.7167 55.129 23 53.565 23H47.411ZM50.148 20.926H53.361C54.075 20.926 54.6134 20.8127 54.976 20.586C55.35 20.348 55.537 19.974 55.537 19.464C55.537 18.9653 55.35 18.597 54.976 18.359C54.6134 18.1097 54.075 17.985 53.361 17.985H49.944V15.979H52.885C53.5537 15.979 54.0637 15.8657 54.415 15.639C54.7777 15.401 54.959 15.044 54.959 14.568C54.959 14.1033 54.7777 13.7577 54.415 13.531C54.0637 13.293 53.5537 13.174 52.885 13.174H50.148V20.926ZM62.9431 15.894H68.6721V18.036H62.9431V15.894ZM63.1471 20.79H69.6241V23H60.4101V11.1H69.4031V13.31H63.1471V20.79ZM75.7253 23.204C74.7733 23.204 73.861 23.0793 72.9883 22.83C72.1157 22.5693 71.413 22.235 70.8803 21.827L71.8153 19.753C72.3253 20.1157 72.926 20.416 73.6173 20.654C74.32 20.8807 75.0283 20.994 75.7423 20.994C76.2863 20.994 76.7227 20.943 77.0513 20.841C77.3913 20.7277 77.6407 20.5747 77.7993 20.382C77.958 20.1893 78.0373 19.9683 78.0373 19.719C78.0373 19.4017 77.9127 19.1523 77.6633 18.971C77.414 18.7783 77.0853 18.6253 76.6773 18.512C76.2693 18.3873 75.816 18.274 75.3173 18.172C74.83 18.0587 74.337 17.9227 73.8383 17.764C73.351 17.6053 72.9033 17.4013 72.4953 17.152C72.0873 16.9027 71.753 16.574 71.4923 16.166C71.243 15.758 71.1183 15.2367 71.1183 14.602C71.1183 13.922 71.2997 13.3043 71.6623 12.749C72.0363 12.1823 72.5917 11.7347 73.3283 11.406C74.0763 11.066 75.0113 10.896 76.1333 10.896C76.8813 10.896 77.618 10.9867 78.3433 11.168C79.0687 11.338 79.709 11.5987 80.2643 11.95L79.4143 14.041C78.859 13.7237 78.3037 13.4913 77.7483 13.344C77.193 13.1853 76.649 13.106 76.1163 13.106C75.5837 13.106 75.1473 13.1683 74.8073 13.293C74.4673 13.4177 74.2237 13.582 74.0763 13.786C73.929 13.9787 73.8553 14.2053 73.8553 14.466C73.8553 14.772 73.98 15.0213 74.2293 15.214C74.4787 15.3953 74.8073 15.5427 75.2153 15.656C75.6233 15.7693 76.071 15.8827 76.5583 15.996C77.057 16.1093 77.55 16.2397 78.0373 16.387C78.536 16.5343 78.9893 16.7327 79.3973 16.982C79.8053 17.2313 80.134 17.56 80.3833 17.968C80.644 18.376 80.7743 18.8917 80.7743 19.515C80.7743 20.1837 80.5873 20.7957 80.2133 21.351C79.8393 21.9063 79.2783 22.354 78.5303 22.694C77.7937 23.034 76.8587 23.204 75.7253 23.204ZM84.9551 23V13.344H81.1471V11.1H91.5171V13.344H87.7091V23H84.9551ZM101.723 23.204C100.771 23.204 99.8591 23.0793 98.9864 22.83C98.1137 22.5693 97.4111 22.235 96.8784 21.827L97.8134 19.753C98.3234 20.1157 98.9241 20.416 99.6154 20.654C100.318 20.8807 101.026 20.994 101.74 20.994C102.284 20.994 102.721 20.943 103.049 20.841C103.389 20.7277 103.639 20.5747 103.797 20.382C103.956 20.1893 104.035 19.9683 104.035 19.719C104.035 19.4017 103.911 19.1523 103.661 18.971C103.412 18.7783 103.083 18.6253 102.675 18.512C102.267 18.3873 101.814 18.274 101.315 18.172C100.828 18.0587 100.335 17.9227 99.8364 17.764C99.3491 17.6053 98.9014 17.4013 98.4934 17.152C98.0854 16.9027 97.7511 16.574 97.4904 16.166C97.2411 15.758 97.1164 15.2367 97.1164 14.602C97.1164 13.922 97.2977 13.3043 97.6604 12.749C98.0344 12.1823 98.5897 11.7347 99.3264 11.406C100.074 11.066 101.009 10.896 102.131 10.896C102.879 10.896 103.616 10.9867 104.341 11.168C105.067 11.338 105.707 11.5987 106.262 11.95L105.412 14.041C104.857 13.7237 104.302 13.4913 103.746 13.344C103.191 13.1853 102.647 13.106 102.114 13.106C101.582 13.106 101.145 13.1683 100.805 13.293C100.465 13.4177 100.222 13.582 100.074 13.786C99.9271 13.9787 99.8534 14.2053 99.8534 14.466C99.8534 14.772 99.9781 15.0213 100.227 15.214C100.477 15.3953 100.805 15.5427 101.213 15.656C101.621 15.7693 102.069 15.8827 102.556 15.996C103.055 16.1093 103.548 16.2397 104.035 16.387C104.534 16.5343 104.987 16.7327 105.395 16.982C105.803 17.2313 106.132 17.56 106.381 17.968C106.642 18.376 106.772 18.8917 106.772 19.515C106.772 20.1837 106.585 20.7957 106.211 21.351C105.837 21.9063 105.276 22.354 104.528 22.694C103.792 23.034 102.857 23.204 101.723 23.204ZM116.814 11.1H119.568V23H116.814V11.1ZM111.408 23H108.654V11.1H111.408V23ZM117.018 18.121H111.204V15.792H117.018V18.121ZM128.164 23.204C127.223 23.204 126.35 23.051 125.546 22.745C124.752 22.439 124.061 22.0083 123.472 21.453C122.894 20.8977 122.44 20.246 122.112 19.498C121.794 18.75 121.636 17.934 121.636 17.05C121.636 16.166 121.794 15.35 122.112 14.602C122.44 13.854 122.899 13.2023 123.489 12.647C124.078 12.0917 124.769 11.661 125.563 11.355C126.356 11.049 127.217 10.896 128.147 10.896C129.087 10.896 129.949 11.049 130.731 11.355C131.524 11.661 132.21 12.0917 132.788 12.647C133.377 13.2023 133.836 13.854 134.165 14.602C134.493 15.3387 134.658 16.1547 134.658 17.05C134.658 17.934 134.493 18.7557 134.165 19.515C133.836 20.263 133.377 20.9147 132.788 21.47C132.21 22.014 131.524 22.439 130.731 22.745C129.949 23.051 129.093 23.204 128.164 23.204ZM128.147 20.858C128.679 20.858 129.167 20.7673 129.609 20.586C130.062 20.4047 130.459 20.144 130.799 19.804C131.139 19.464 131.399 19.0617 131.581 18.597C131.773 18.1323 131.87 17.6167 131.87 17.05C131.87 16.4833 131.773 15.9677 131.581 15.503C131.399 15.0383 131.139 14.636 130.799 14.296C130.47 13.956 130.079 13.6953 129.626 13.514C129.172 13.3327 128.679 13.242 128.147 13.242C127.614 13.242 127.121 13.3327 126.668 13.514C126.226 13.6953 125.835 13.956 125.495 14.296C125.155 14.636 124.888 15.0383 124.696 15.503C124.514 15.9677 124.424 16.4833 124.424 17.05C124.424 17.6053 124.514 18.121 124.696 18.597C124.888 19.0617 125.149 19.464 125.478 19.804C125.818 20.144 126.214 20.4047 126.668 20.586C127.121 20.7673 127.614 20.858 128.147 20.858ZM136.727 23V11.1H141.878C142.944 11.1 143.862 11.2757 144.632 11.627C145.403 11.967 145.998 12.46 146.417 13.106C146.837 13.752 147.046 14.5227 147.046 15.418C147.046 16.302 146.837 17.067 146.417 17.713C145.998 18.359 145.403 18.8577 144.632 19.209C143.862 19.549 142.944 19.719 141.878 19.719H138.257L139.481 18.478V23H136.727ZM139.481 18.784L138.257 17.475H141.725C142.575 17.475 143.21 17.2937 143.629 16.931C144.049 16.5683 144.258 16.064 144.258 15.418C144.258 14.7607 144.049 14.2507 143.629 13.888C143.21 13.5253 142.575 13.344 141.725 13.344H138.257L139.481 12.035V18.784Z" fill="#F22735"/>
<path d="M29 0H8.00005C4.13405 0 1.00005 3.13401 1.00005 7V28C1.00005 31.866 4.13405 35 8.00005 35H29C32.866 35 36 31.866 36 28V7C36 3.13401 32.866 0 29 0Z" fill="#F22735"/>
<path d="M20.9541 9.32593C21.1307 9.44034 21.2804 9.59144 21.3932 9.769C21.506 9.94656 21.5792 10.1463 21.6077 10.3547C21.6904 10.8661 21.7288 11.3853 21.7719 11.9008C21.813 12.3912 21.8112 12.886 21.8737 13.3734C21.955 14.0214 22.0837 14.6635 22.193 15.3059C22.1778 15.318 22.1617 15.3286 22.144 15.3366C21.8242 15.4256 21.5039 15.5113 21.184 15.6003C20.4452 15.8067 20.5107 15.6934 20.7013 16.4364C20.7581 16.6654 20.8714 16.7176 21.0916 16.6547C21.5481 16.5186 22.0089 16.4035 22.477 16.2761L22.8598 17.2812C22.8454 17.2966 22.8304 17.3109 22.814 17.3239C22.5055 17.4897 22.2027 17.6578 21.8917 17.8191C21.3637 18.0987 21.3263 18.0451 21.6466 18.6245C21.8255 18.9478 21.8598 18.9591 22.1722 18.7883C22.553 18.5848 22.9327 18.383 23.3066 18.1806L23.9495 19.1982C23.653 19.4184 23.3743 19.628 23.0947 19.8332C22.5033 20.2673 22.5232 20.1712 22.959 20.7739C23.0967 20.9629 23.2234 20.9721 23.4048 20.8351C23.7792 20.5443 24.1674 20.2667 24.5538 19.9838C24.9501 20.3706 25.319 20.7497 25.706 21.1043C26.5998 21.8804 27.5721 22.5602 28.6076 23.1336C28.9755 23.3431 29.2914 23.6331 29.532 23.9814C29.7727 24.3297 29.9323 24.7279 29.9982 25.1461C30.008 25.2411 29.9793 25.3358 29.9193 25.4101C29.5327 25.8467 29.0243 26.1579 28.4596 26.3035C27.7962 26.469 27.1051 26.4889 26.4334 26.3615C25.3366 26.1495 24.283 25.7559 23.3157 25.1973C20.7632 23.8263 18.3685 22.1795 16.1753 20.2862C14.4411 18.8182 12.7253 17.3288 11 15.8526C9.95317 14.9559 8.89251 14.0778 7.86874 13.1573C7.04701 12.4264 6.34075 11.5748 5.77494 10.6318C5.75174 10.6038 5.73439 10.5714 5.72413 10.5364C5.71386 10.5015 5.71116 10.4652 5.71551 10.4291C5.71985 10.393 5.73141 10.3578 5.74966 10.3263C5.7679 10.2948 5.79221 10.2674 5.8214 10.2457C5.98636 10.0857 6.14057 9.91503 6.28288 9.7346C7.08129 8.63488 8.13444 7.74521 9.35255 7.14269C10.196 6.75131 10.9786 6.23995 11.6754 5.62424C11.7269 5.57907 11.7836 5.54028 11.8447 5.50919C11.8987 5.46985 11.961 5.44344 12.0268 5.4313C12.0925 5.41916 12.1604 5.42184 12.2249 5.43928C12.2894 5.45672 12.3486 5.48831 12.3993 5.53192C12.45 5.57552 12.4903 5.62999 12.5171 5.6912C12.6473 5.93974 12.7453 6.2042 12.8072 6.47787C12.952 7.10882 13.0851 7.74324 13.1896 8.37977C13.337 9.25955 13.7791 10.0635 14.4432 10.6591C15.4303 11.5425 16.5996 12.1974 17.8685 12.5778C18.4093 12.7609 18.6031 12.6022 18.6104 12.0404C18.6119 11.634 18.6677 11.2299 18.7761 10.8382C18.9326 10.2484 19.2815 9.72735 19.7676 9.3584C19.9201 9.22638 20.1116 9.14781 20.3128 9.13366C20.5141 9.11952 20.7142 9.17084 20.8837 9.28023L20.9541 9.32593ZM8.03323 14.2663C10.3581 16.2601 12.6907 18.2451 15.0178 20.2351C16.9963 21.9709 19.1201 23.5337 21.366 24.9061C22.5189 25.6507 23.7513 26.2645 25.0405 26.7357C25.8525 27.0826 26.7381 27.2208 27.6173 27.1388C28.4966 27.0567 29.3419 26.7571 30.0757 26.2659C30.0292 26.4342 30.0063 26.553 29.965 26.6603C29.8133 27.0513 29.5687 27.3994 29.2517 27.674C28.9346 27.9485 28.5547 28.141 28.1461 28.2352C27.2996 28.4744 26.4142 28.5448 25.5406 28.4423C24.0764 28.2769 22.6413 27.9172 21.2721 27.3726C19.2355 26.6082 17.3261 25.5407 15.6084 24.206C14.7353 23.5254 13.8812 22.8228 12.9993 22.1556C11.6583 21.2341 10.2519 20.4111 8.79131 19.6939C7.15298 18.8206 5.58381 17.8235 4.09771 16.7107C3.3303 16.1435 2.76987 15.3402 2.50235 14.4242C2.38072 14.0977 2.36664 13.7408 2.4629 13.406C2.55915 13.0712 2.76036 12.776 3.03678 12.564C3.7241 12.0138 4.42512 11.483 5.13684 10.9336C5.9061 12.2009 6.88558 13.3278 8.03323 14.2663Z" fill="white"/>
</svg>
