<svg width="148" height="35" viewBox="0 0 148 35" fill="none" xmlns="http://www.w3.org/2000/svg">
<path d="M29 0H8.00005C4.13405 0 1.00005 3.13401 1.00005 7V28C1.00005 31.866 4.13405 35 8.00005 35H29C32.866 35 36 31.866 36 28V7C36 3.13401 32.866 0 29 0Z" fill="#F22735"/>
<path d="M47.411 23V11.1H53.225C54.721 11.1 55.843 11.3833 56.591 11.95C57.3504 12.5167 57.73 13.2647 57.73 14.194C57.73 14.8173 57.577 15.3613 57.271 15.826C56.965 16.2793 56.5457 16.6307 56.013 16.88C55.4804 17.1293 54.8684 17.254 54.177 17.254L54.5 16.557C55.248 16.557 55.911 16.6817 56.489 16.931C57.067 17.169 57.5147 17.526 57.832 18.002C58.1607 18.478 58.325 19.0617 58.325 19.753C58.325 20.773 57.9227 21.572 57.118 22.15C56.3134 22.7167 55.129 23 53.565 23H47.411ZM50.148 20.926H53.361C54.075 20.926 54.6134 20.8127 54.976 20.586C55.35 20.348 55.537 19.974 55.537 19.464C55.537 18.9653 55.35 18.597 54.976 18.359C54.6134 18.1097 54.075 17.985 53.361 17.985H49.944V15.979H52.885C53.5537 15.979 54.0637 15.8657 54.415 15.639C54.7777 15.401 54.959 15.044 54.959 14.568C54.959 14.1033 54.7777 13.7577 54.415 13.531C54.0637 13.293 53.5537 13.174 52.885 13.174H50.148V20.926ZM62.9431 15.894H68.6721V18.036H62.9431V15.894ZM63.1471 20.79H69.6241V23H60.4101V11.1H69.4031V13.31H63.1471V20.79ZM75.7253 23.204C74.7733 23.204 73.861 23.0793 72.9883 22.83C72.1157 22.5693 71.413 22.235 70.8803 21.827L71.8153 19.753C72.3253 20.1157 72.926 20.416 73.6173 20.654C74.32 20.8807 75.0283 20.994 75.7423 20.994C76.2863 20.994 76.7227 20.943 77.0513 20.841C77.3913 20.7277 77.6407 20.5747 77.7993 20.382C77.958 20.1893 78.0373 19.9683 78.0373 19.719C78.0373 19.4017 77.9127 19.1523 77.6633 18.971C77.414 18.7783 77.0853 18.6253 76.6773 18.512C76.2693 18.3873 75.816 18.274 75.3173 18.172C74.83 18.0587 74.337 17.9227 73.8383 17.764C73.351 17.6053 72.9033 17.4013 72.4953 17.152C72.0873 16.9027 71.753 16.574 71.4923 16.166C71.243 15.758 71.1183 15.2367 71.1183 14.602C71.1183 13.922 71.2997 13.3043 71.6623 12.749C72.0363 12.1823 72.5917 11.7347 73.3283 11.406C74.0763 11.066 75.0113 10.896 76.1333 10.896C76.8813 10.896 77.618 10.9867 78.3433 11.168C79.0687 11.338 79.709 11.5987 80.2643 11.95L79.4143 14.041C78.859 13.7237 78.3037 13.4913 77.7483 13.344C77.193 13.1853 76.649 13.106 76.1163 13.106C75.5837 13.106 75.1473 13.1683 74.8073 13.293C74.4673 13.4177 74.2237 13.582 74.0763 13.786C73.929 13.9787 73.8553 14.2053 73.8553 14.466C73.8553 14.772 73.98 15.0213 74.2293 15.214C74.4787 15.3953 74.8073 15.5427 75.2153 15.656C75.6233 15.7693 76.071 15.8827 76.5583 15.996C77.057 16.1093 77.55 16.2397 78.0373 16.387C78.536 16.5343 78.9893 16.7327 79.3973 16.982C79.8053 17.2313 80.134 17.56 80.3833 17.968C80.644 18.376 80.7743 18.8917 80.7743 19.515C80.7743 20.1837 80.5873 20.7957 80.2133 21.351C79.8393 21.9063 79.2783 22.354 78.5303 22.694C77.7937 23.034 76.8587 23.204 75.7253 23.204ZM84.9551 23V13.344H81.1471V11.1H91.5171V13.344H87.7091V23H84.9551ZM101.723 23.204C100.771 23.204 99.8591 23.0793 98.9864 22.83C98.1137 22.5693 97.4111 22.235 96.8784 21.827L97.8134 19.753C98.3234 20.1157 98.9241 20.416 99.6154 20.654C100.318 20.8807 101.026 20.994 101.74 20.994C102.284 20.994 102.721 20.943 103.049 20.841C103.389 20.7277 103.639 20.5747 103.797 20.382C103.956 20.1893 104.035 19.9683 104.035 19.719C104.035 19.4017 103.911 19.1523 103.661 18.971C103.412 18.7783 103.083 18.6253 102.675 18.512C102.267 18.3873 101.814 18.274 101.315 18.172C100.828 18.0587 100.335 17.9227 99.8364 17.764C99.3491 17.6053 98.9014 17.4013 98.4934 17.152C98.0854 16.9027 97.7511 16.574 97.4904 16.166C97.2411 15.758 97.1164 15.2367 97.1164 14.602C97.1164 13.922 97.2977 13.3043 97.6604 12.749C98.0344 12.1823 98.5897 11.7347 99.3264 11.406C100.074 11.066 101.009 10.896 102.131 10.896C102.879 10.896 103.616 10.9867 104.341 11.168C105.067 11.338 105.707 11.5987 106.262 11.95L105.412 14.041C104.857 13.7237 104.302 13.4913 103.746 13.344C103.191 13.1853 102.647 13.106 102.114 13.106C101.582 13.106 101.145 13.1683 100.805 13.293C100.465 13.4177 100.222 13.582 100.074 13.786C99.9271 13.9787 99.8534 14.2053 99.8534 14.466C99.8534 14.772 99.9781 15.0213 100.227 15.214C100.477 15.3953 100.805 15.5427 101.213 15.656C101.621 15.7693 102.069 15.8827 102.556 15.996C103.055 16.1093 103.548 16.2397 104.035 16.387C104.534 16.5343 104.987 16.7327 105.395 16.982C105.803 17.2313 106.132 17.56 106.381 17.968C106.642 18.376 106.772 18.8917 106.772 19.515C106.772 20.1837 106.585 20.7957 106.211 21.351C105.837 21.9063 105.276 22.354 104.528 22.694C103.792 23.034 102.857 23.204 101.723 23.204ZM116.814 11.1H119.568V23H116.814V11.1ZM111.408 23H108.654V11.1H111.408V23ZM117.018 18.121H111.204V15.792H117.018V18.121ZM128.164 23.204C127.223 23.204 126.35 23.051 125.546 22.745C124.752 22.439 124.061 22.0083 123.472 21.453C122.894 20.8977 122.44 20.246 122.112 19.498C121.794 18.75 121.636 17.934 121.636 17.05C121.636 16.166 121.794 15.35 122.112 14.602C122.44 13.854 122.899 13.2023 123.489 12.647C124.078 12.0917 124.769 11.661 125.563 11.355C126.356 11.049 127.217 10.896 128.147 10.896C129.087 10.896 129.949 11.049 130.731 11.355C131.524 11.661 132.21 12.0917 132.788 12.647C133.377 13.2023 133.836 13.854 134.165 14.602C134.493 15.3387 134.658 16.1547 134.658 17.05C134.658 17.934 134.493 18.7557 134.165 19.515C133.836 20.263 133.377 20.9147 132.788 21.47C132.21 22.014 131.524 22.439 130.731 22.745C129.949 23.051 129.093 23.204 128.164 23.204ZM128.147 20.858C128.679 20.858 129.167 20.7673 129.609 20.586C130.062 20.4047 130.459 20.144 130.799 19.804C131.139 19.464 131.399 19.0617 131.581 18.597C131.773 18.1323 131.87 17.6167 131.87 17.05C131.87 16.4833 131.773 15.9677 131.581 15.503C131.399 15.0383 131.139 14.636 130.799 14.296C130.47 13.956 130.079 13.6953 129.626 13.514C129.172 13.3327 128.679 13.242 128.147 13.242C127.614 13.242 127.121 13.3327 126.668 13.514C126.226 13.6953 125.835 13.956 125.495 14.296C125.155 14.636 124.888 15.0383 124.696 15.503C124.514 15.9677 124.424 16.4833 124.424 17.05C124.424 17.6053 124.514 18.121 124.696 18.597C124.888 19.0617 125.149 19.464 125.478 19.804C125.818 20.144 126.214 20.4047 126.668 20.586C127.121 20.7673 127.614 20.858 128.147 20.858ZM136.727 23V11.1H141.878C142.944 11.1 143.862 11.2757 144.632 11.627C145.403 11.967 145.998 12.46 146.417 13.106C146.837 13.752 147.046 14.5227 147.046 15.418C147.046 16.302 146.837 17.067 146.417 17.713C145.998 18.359 145.403 18.8577 144.632 19.209C143.862 19.549 142.944 19.719 141.878 19.719H138.257L139.481 18.478V23H136.727ZM139.481 18.784L138.257 17.475H141.725C142.575 17.475 143.21 17.2937 143.629 16.931C144.049 16.5683 144.258 16.064 144.258 15.418C144.258 14.7607 144.049 14.2507 143.629 13.888C143.21 13.5253 142.575 13.344 141.725 13.344H138.257L139.481 12.035V18.784Z" fill="#F22735"/>
<path d="M23.3202 8.54137C23.5176 8.66929 23.685 8.83825 23.8111 9.03679C23.9372 9.23534 24.0191 9.45868 24.0509 9.69171C24.1434 10.2636 24.1863 10.8441 24.2346 11.4204C24.2806 11.9689 24.2785 12.5221 24.3484 13.0671C24.4393 13.7916 24.5833 14.5096 24.7055 15.228C24.6884 15.2414 24.6704 15.2533 24.6507 15.2623C24.293 15.3618 23.9349 15.4576 23.5773 15.5571C22.7511 15.788 22.8243 15.6612 23.0375 16.492C23.1009 16.7481 23.2277 16.8065 23.4739 16.7361C23.9844 16.584 24.4996 16.4552 25.023 16.3128L25.451 17.4367C25.435 17.4538 25.4182 17.4699 25.3998 17.4844C25.0549 17.6698 24.7163 17.8578 24.3686 18.0381C23.7781 18.3507 23.7364 18.2908 24.0944 18.9386C24.2945 19.3001 24.3329 19.3128 24.6822 19.1218C25.108 18.8942 25.5325 18.6686 25.9506 18.4423L26.6694 19.5802C26.3379 19.8264 26.0263 20.0608 25.7137 20.2902C25.0524 20.7756 25.0747 20.6681 25.562 21.3421C25.716 21.5534 25.8576 21.5636 26.0604 21.4105C26.4791 21.0853 26.9131 20.7749 27.3452 20.4586C27.7883 20.8911 28.2008 21.315 28.6335 21.7115C29.633 22.5792 30.7201 23.3394 31.878 23.9805C32.2893 24.2148 32.6425 24.5391 32.9116 24.9285C33.1807 25.318 33.3592 25.7632 33.4329 26.2308C33.4438 26.3371 33.4118 26.4429 33.3447 26.5261C32.9124 27.0143 32.3439 27.3622 31.7125 27.525C30.9708 27.7101 30.198 27.7323 29.4469 27.5898C28.2205 27.3528 27.0424 26.9127 25.9608 26.2881C23.1067 24.7551 20.4291 22.9137 17.9767 20.7967C16.0376 19.1552 14.119 17.4899 12.1899 15.8392C11.0194 14.8366 9.83336 13.8547 8.68863 12.8254C7.7698 12.0082 6.98009 11.056 6.34743 10.0016C6.32148 9.97024 6.30209 9.93397 6.29061 9.89492C6.27913 9.85588 6.27611 9.81531 6.28097 9.7749C6.28582 9.7345 6.29875 9.69515 6.31915 9.65994C6.33955 9.62473 6.36674 9.59412 6.39938 9.56981C6.58382 9.39091 6.75626 9.20008 6.91539 8.99832C7.80813 7.76866 8.98572 6.77388 10.3478 6.10016C11.2909 5.66254 12.166 5.09075 12.9451 4.40229C13.0027 4.35178 13.0661 4.30841 13.1343 4.27365C13.1948 4.22965 13.2645 4.20013 13.338 4.18655C13.4115 4.17298 13.4873 4.17597 13.5595 4.19547C13.6317 4.21498 13.6979 4.2503 13.7545 4.29906C13.8112 4.34782 13.8562 4.40871 13.8863 4.47716C14.0319 4.75506 14.1414 5.05077 14.2106 5.35679C14.3725 6.06228 14.5214 6.77167 14.6382 7.48341C14.803 8.46715 15.2973 9.36611 16.0399 10.0321C17.1436 11.0199 18.4512 11.7522 19.87 12.1774C20.4746 12.3822 20.6914 12.2047 20.6995 11.5766C20.7012 11.1222 20.7636 10.6703 20.8848 10.2323C21.0598 9.5728 21.4499 8.99022 21.9934 8.57768C22.164 8.43006 22.3781 8.3422 22.6031 8.32638C22.8281 8.31057 23.0519 8.36796 23.2415 8.49027L23.3202 8.54137ZM8.87255 14.0654C11.4721 16.2949 14.0804 18.5144 16.6824 20.7395C18.8947 22.6805 21.2694 24.4279 23.7807 25.9625C25.0699 26.7951 26.4479 27.4815 27.8894 28.0082C28.7973 28.3962 29.7876 28.5507 30.7707 28.459C31.7538 28.3673 32.6991 28.0323 33.5196 27.4829C33.4675 27.6711 33.4419 27.804 33.3958 27.924C33.2261 28.3612 32.9527 28.7505 32.5982 29.0574C32.2436 29.3643 31.8189 29.5797 31.3619 29.685C30.4155 29.9524 29.4254 30.0311 28.4486 29.9166C26.8114 29.7316 25.2068 29.3294 23.6757 28.7205C21.3985 27.8657 19.2635 26.6721 17.3428 25.1797C16.3665 24.4186 15.4115 23.633 14.4254 22.887C12.9259 21.8566 11.3533 20.9364 9.7202 20.1344C7.88829 19.1579 6.13371 18.043 4.47201 16.7987C3.61392 16.1645 2.98727 15.2662 2.68814 14.242C2.55215 13.877 2.5364 13.4779 2.64403 13.1036C2.75166 12.7292 2.97664 12.3991 3.28572 12.162C4.05426 11.5469 4.83811 10.9534 5.63393 10.339C6.49408 11.756 7.58929 13.0161 8.87255 14.0654Z" fill="white"/>
</svg>
